M48
; DRILL file {KiCad 8.0.1} date 2024-06-11T22:01:25-0400
; FORMAT={-:-/ absolute / inch / decimal}
; #@! TF.CreationDate,2024-06-11T22:01:25-04:00
; #@! TF.GenerationSoftware,Kicad,Pcbnew,8.0.1
; #@! TF.FileFunction,Plated,1,4,PTH
FMAT,2
INCH
; #@! TA.AperFunction,Plated,PTH,ViaDrill
T1C0.0157
; #@! TA.AperFunction,Plated,PTH,ComponentDrill
T2C0.0236
; #@! TA.AperFunction,Plated,PTH,ComponentDrill
T3C0.0276
; #@! TA.AperFunction,Plated,PTH,ComponentDrill
T4C0.0295
; #@! TA.AperFunction,Plated,PTH,ComponentDrill
T5C0.0315
; #@! TA.AperFunction,Plated,PTH,ComponentDrill
T6C0.0354
; #@! TA.AperFunction,Plated,PTH,ComponentDrill
T7C0.0394
; #@! TA.AperFunction,Plated,PTH,ComponentDrill
T8C0.0433
; #@! TA.AperFunction,Plated,PTH,ComponentDrill
T9C0.0472
; #@! TA.AperFunction,Plated,PTH,ComponentDrill
T10C0.0551
; #@! TA.AperFunction,Plated,PTH,ComponentDrill
T11C0.1260
%
G90
G05
T1
X3.15Y-1.4
X3.15Y-1.8
X3.15Y-2.2
X3.15Y-2.6
X3.15Y-3.0
X3.15Y-3.4
X3.55Y-2.6
X3.55Y-3.0
X3.55Y-3.4
X3.55Y-3.7
X3.6Y-1.85
X3.95Y-1.7
X3.95Y-2.6
X3.95Y-3.0
X3.95Y-3.4
X3.95Y-3.7
X4.35Y-0.8
X4.35Y-3.0
X4.35Y-3.4
X4.35Y-3.7
X4.45Y-2.4
X4.75Y-0.8
X4.75Y-3.4
X4.75Y-3.7
X4.95Y-2.45
X5.15Y-0.8
X5.15Y-3.4
X5.15Y-3.7
X5.35Y-1.5
X5.4Y-1.85
X5.5Y-0.8
X5.55Y-3.7
X5.8Y-2.6
X5.9Y-0.8
X6.0Y-3.7
X6.2Y-1.7
X6.25Y-0.8
X6.4Y-1.95
X6.4Y-3.7
X6.45Y-2.6
X6.55Y-1.75
X6.65Y-0.8
X6.7Y-1.35
X6.8Y-3.7
X7.1Y-1.0
X7.1Y-1.85
X7.1Y-3.4
X7.2Y-1.0
X7.2Y-3.7
X7.25Y-1.15
X7.25Y-2.05
X7.5Y-3.4
X7.55Y-2.55
X7.6Y-3.7
X7.8Y-2.5
X7.9Y-3.4
X8.0Y-3.7
X8.4Y-3.0
X8.4Y-3.7
X8.8Y-1.25
X8.8Y-2.3
X8.8Y-3.0
X8.8Y-3.7
X9.2Y-1.25
X9.2Y-3.7
X9.6Y-3.7
X9.9Y-1.95
X9.9Y-2.35
X9.95Y-2.7
X10.0Y-2.8
T2
X6.4409Y-3.55
X6.5Y-3.55
X6.85Y-3.4
X6.8819Y-0.95
X6.9Y-1.8
X6.9091Y-3.4
X6.9409Y-0.95
X6.9591Y-1.8
X7.9409Y-3.2
X8.0Y-3.2
X9.05Y-3.4
X9.1091Y-3.4
T3
X3.35Y-0.85
X3.65Y-0.85
X3.8Y-1.85
X3.8Y-2.15
X4.0Y-1.85
X4.0Y-2.15
X4.15Y-1.7
X4.15Y-2.0
X4.55Y-2.9504
X4.55Y-3.2504
X4.7506Y-2.95
X4.7506Y-3.25
X4.85Y-1.75
X4.85Y-2.05
X4.95Y-1.0
X4.95Y-2.15
X5.25Y-1.0
X5.25Y-2.15
X5.55Y-3.0
X5.55Y-3.3
X5.7Y-3.0
X5.7Y-3.3
X5.85Y-3.45
X6.15Y-3.0
X6.15Y-3.3
X6.15Y-3.45
X6.9Y-2.85
X6.9Y-3.15
X7.05Y-3.25
X7.1Y-0.8
X7.1Y-2.65
X7.35Y-3.25
X7.4Y-0.8
X7.4Y-1.25
X7.4Y-1.65
X7.4Y-2.05
X7.4Y-2.45
X7.4Y-2.65
X7.45Y-2.8
X7.45Y-3.1
X7.5Y-3.25
X7.65Y-2.8
X7.65Y-3.1
X7.7Y-1.25
X7.7Y-1.65
X7.7Y-2.05
X7.7Y-2.45
X7.8Y-3.25
X9.0Y-3.0
X9.3Y-3.0
T4
X5.95Y-3.15
X5.95Y-3.2
X5.95Y-3.25
X7.2Y-2.9
X7.2Y-2.95
X7.2Y-3.0
X7.85Y-2.95
X7.9Y-2.95
X7.95Y-2.95
T5
X3.1Y-1.1
X3.1Y-1.1787
X3.4122Y-1.2
X3.4122Y-2.05
X3.55Y-1.2
X3.55Y-2.05
X3.6Y-1.6516
X3.6Y-1.75
X3.8122Y-1.45
X3.85Y-0.85
X3.85Y-0.9484
X3.95Y-1.45
X4.3494Y-1.7504
X4.3494Y-1.8504
X4.3494Y-1.9504
X4.3494Y-2.0504
X4.45Y-1.55
X4.5484Y-1.55
X4.6494Y-1.7504
X4.6494Y-1.8504
X4.6494Y-1.9504
X4.6494Y-2.0504
X4.6516Y-2.2
X4.75Y-2.2
X4.8994Y-2.9504
X4.8994Y-3.0504
X4.8994Y-3.1504
X4.8994Y-3.2504
X5.001Y-2.7504
X5.0622Y-1.35
X5.0622Y-1.8
X5.0994Y-2.7504
X5.1994Y-2.9504
X5.1994Y-3.0504
X5.1994Y-3.1504
X5.1994Y-3.2504
X5.2Y-1.35
X5.2Y-1.8
X5.55Y-1.1016
X5.55Y-1.2984
X5.55Y-1.4016
X5.55Y-1.5984
X5.75Y-1.1016
X5.75Y-1.2984
X5.75Y-1.4016
X5.75Y-1.5984
X5.75Y-2.35
X5.8484Y-2.35
X5.9994Y-1.2004
X5.9994Y-1.3004
X5.9994Y-1.4004
X5.9994Y-1.5004
X5.9994Y-2.0504
X5.9994Y-2.1504
X5.9994Y-2.2504
X5.9994Y-2.3504
X6.101Y-1.8504
X6.1016Y-1.0
X6.1994Y-1.8504
X6.2Y-1.0
X6.2994Y-1.2004
X6.2994Y-1.3004
X6.2994Y-1.4004
X6.2994Y-1.5004
X6.2994Y-2.0504
X6.2994Y-2.1504
X6.2994Y-2.2504
X6.2994Y-2.3504
X6.3004Y-3.0004
X6.3004Y-3.1004
X6.3004Y-3.2004
X6.3004Y-3.3004
X6.4Y-2.8
X6.4984Y-2.8
X6.5494Y-1.2004
X6.5494Y-1.3004
X6.5494Y-1.4004
X6.5494Y-1.5004
X6.5494Y-2.0504
X6.5494Y-2.1504
X6.5494Y-2.2504
X6.5494Y-2.3504
X6.6004Y-3.0004
X6.6004Y-3.1004
X6.6004Y-3.2004
X6.6004Y-3.3004
X6.65Y-2.5
X6.65Y-3.55
X6.6516Y-1.65
X6.7484Y-2.5
X6.7484Y-3.55
X6.75Y-1.65
X6.8494Y-1.2004
X6.8494Y-1.3004
X6.8494Y-1.4004
X6.8494Y-1.5004
X6.8494Y-2.0504
X6.8494Y-2.1504
X6.8494Y-2.2504
X6.8494Y-2.3504
X8.25Y-3.4
X8.25Y-3.4984
X9.1524Y-0.85
X9.1524Y-1.95
X9.3Y-3.4
X9.3Y-3.4984
X9.4476Y-0.85
X9.4476Y-1.95
T6
X5.55Y-2.8
X5.65Y-2.8
X8.6Y-1.4
X8.6Y-2.5
X8.9Y-1.4
X8.9Y-2.5
X9.5Y-2.95
X9.5Y-3.05
T7
X3.4Y-1.55
X3.4Y-1.65
X3.4Y-1.75
X5.5516Y-1.9382
X5.65Y-1.7413
X5.7484Y-1.9382
T8
X4.25Y-2.4
X4.25Y-2.6
X4.3Y-1.05
X4.3Y-1.3
X4.65Y-2.4
X4.65Y-2.6
X4.7Y-1.05
X4.7Y-1.3
X7.1Y-1.15
X7.1Y-1.55
X7.1Y-2.0
X7.1Y-2.4
X7.35Y-1.05
X7.35Y-1.45
X7.35Y-1.85
X7.35Y-2.25
X7.75Y-1.05
X7.75Y-1.45
X7.75Y-1.85
X7.75Y-2.25
X7.95Y-0.9
X7.95Y-1.0
X7.95Y-1.1
X7.95Y-1.4
X7.95Y-1.5
X7.95Y-1.6
X7.95Y-1.9
X7.95Y-2.0
X7.95Y-2.1
X7.95Y-2.4
X7.95Y-2.5
X7.95Y-2.6
X8.4128Y-3.3
X8.4128Y-3.4
X8.4128Y-3.5
X9.44Y-3.3
X9.44Y-3.4
X9.44Y-3.5
T9
X9.35Y-1.1047
X9.35Y-1.6953
X9.35Y-2.2047
X9.35Y-2.7953
X9.85Y-1.55
X9.85Y-2.55
X9.9Y-1.1622
X9.9Y-1.3
X9.9Y-2.8
X9.9Y-2.9378
T10
X8.6Y-0.85
X8.6Y-1.95
X8.8Y-0.85
X8.8Y-1.95
T11
X3.1Y-0.8
X3.1Y-3.65
X10.15Y-0.8
X10.15Y-3.65
M30
