M48
; DRILL file {KiCad 7.0.8} date 2024 February 09, Friday 15:44:28
; FORMAT={-:-/ absolute / inch / decimal}
; #@! TF.CreationDate,2024-02-09T15:44:28-05:00
; #@! TF.GenerationSoftware,Kicad,Pcbnew,7.0.8
; #@! TF.FileFunction,Plated,1,2,PTH
FMAT,2
INCH
; #@! TA.AperFunction,Plated,PTH,ViaDrill
T1C0.0157
; #@! TA.AperFunction,Plated,PTH,ComponentDrill
T2C0.0236
; #@! TA.AperFunction,Plated,PTH,ComponentDrill
T3C0.0276
; #@! TA.AperFunction,Plated,PTH,ComponentDrill
T4C0.0281
; #@! TA.AperFunction,Plated,PTH,ComponentDrill
T5C0.0295
; #@! TA.AperFunction,Plated,PTH,ComponentDrill
T6C0.0315
; #@! TA.AperFunction,Plated,PTH,ComponentDrill
T7C0.0354
; #@! TA.AperFunction,Plated,PTH,ViaDrill
T8C0.0394
; #@! TA.AperFunction,Plated,PTH,ComponentDrill
T9C0.0394
; #@! TA.AperFunction,Plated,PTH,ComponentDrill
T10C0.0433
; #@! TA.AperFunction,Plated,PTH,ComponentDrill
T11C0.0472
; #@! TA.AperFunction,Plated,PTH,ComponentDrill
T12C0.0551
%
G90
G05
T1
X5.11Y-5.29
X5.71Y-2.24
X6.64Y-4.37
T2
X3.5118Y-4.6457
X3.5709Y-4.6457
X3.6416Y-4.99
X3.7006Y-4.99
X3.7598Y-3.189
X3.8189Y-3.189
X5.0984Y-3.98
X5.1575Y-3.98
X5.7087Y-2.9921
X5.7157Y-5.5512
X5.7677Y-2.9921
X5.7748Y-5.5512
X5.8071Y-6.3386
X5.8465Y-2.126
X5.8661Y-6.3386
X5.9055Y-2.126
T3
X2.04Y-5.0
X2.2441Y-2.0547
X2.2441Y-2.3547
X2.2835Y-6.0311
X2.2835Y-6.3311
X2.34Y-5.0
X2.41Y-3.51
X2.41Y-3.81
X2.4409Y-2.574
X2.4409Y-2.874
X2.6055Y-5.5193
X2.6055Y-5.8193
X2.6772Y-2.5665
X2.6772Y-2.8665
X2.7165Y-4.4803
X2.7165Y-4.7803
X2.9528Y-2.0547
X2.9528Y-2.3547
X2.9528Y-4.4803
X2.9528Y-4.7803
X2.9598Y-6.0311
X2.9598Y-6.3311
X3.0315Y-5.5661
X3.0315Y-5.8661
X3.1969Y-4.0232
X3.1969Y-4.3232
X3.5827Y-2.0154
X3.5827Y-2.3154
X3.5827Y-2.4878
X3.5827Y-2.7878
X3.5827Y-5.5268
X3.5827Y-5.8268
X3.5827Y-6.0705
X3.5827Y-6.3705
X3.8583Y-2.0154
X3.8583Y-2.3154
X3.8583Y-2.4878
X3.8583Y-2.7878
X3.8583Y-5.5193
X3.8583Y-5.8193
X3.8583Y-6.0705
X3.8583Y-6.3705
X3.9055Y-3.787
X3.9055Y-4.087
X4.0311Y-4.685
X4.0311Y-4.8819
X4.063Y-3.787
X4.063Y-4.087
X4.3311Y-4.685
X4.3311Y-4.8819
X4.535Y-4.68
X4.535Y-4.8819
X4.79Y-4.18
X4.835Y-4.68
X4.835Y-4.8819
X5.09Y-4.18
X5.1181Y-3.4327
X5.1181Y-3.7327
X5.6374Y-4.5669
X5.6374Y-4.8031
X5.9374Y-4.5669
X5.9374Y-4.8031
X6.06Y-4.07
X6.06Y-4.37
X6.228Y-1.8189
X6.228Y-2.685
X6.228Y-4.6457
X6.228Y-5.3937
X6.228Y-6.4961
X6.2311Y-2.9921
X6.2311Y-3.7402
X6.24Y-5.7
X6.25Y-4.07
X6.25Y-4.37
X6.528Y-1.8189
X6.528Y-2.685
X6.528Y-4.6457
X6.528Y-5.3937
X6.528Y-6.4961
X6.5311Y-2.9921
X6.5311Y-3.7402
X6.54Y-5.7
T4
X4.7425Y-3.1496
X4.7425Y-5.2575
X4.8425Y-3.0496
X4.8425Y-5.1575
X4.9425Y-3.1496
X4.9425Y-5.2575
T5
X3.8055Y-4.685
X3.8555Y-4.685
X3.9055Y-4.685
X4.252Y-4.1339
X4.302Y-4.1339
X4.352Y-4.1339
X5.3831Y-4.7138
X5.3831Y-4.7638
X5.3831Y-4.8138
X6.4Y-4.2
X6.45Y-4.2
X6.5Y-4.2
T6
X2.0916Y-3.8
X2.13Y-4.57
X2.19Y-3.8
X2.2284Y-4.57
X2.3622Y-5.27
X2.3819Y-3.2677
X2.4488Y-2.0551
X2.4488Y-2.1551
X2.4488Y-2.2551
X2.4488Y-2.3551
X2.4559Y-6.0315
X2.4559Y-6.1315
X2.4559Y-6.2315
X2.4559Y-6.3315
X2.47Y-3.95
X2.47Y-4.0484
X2.5Y-5.27
X2.5197Y-3.2677
X2.5394Y-1.811
X2.6378Y-1.811
X2.6808Y-6.53
X2.685Y-4.0157
X2.685Y-4.1157
X2.685Y-4.2157
X2.685Y-4.3157
X2.7488Y-2.0551
X2.7488Y-2.1551
X2.7488Y-2.2551
X2.7488Y-2.3551
X2.7559Y-6.0315
X2.7559Y-6.1315
X2.7559Y-6.2315
X2.7559Y-6.3315
X2.7638Y-3.7795
X2.7756Y-3.2677
X2.7792Y-6.53
X2.8008Y-2.61
X2.8322Y-5.27
X2.8346Y-5.7677
X2.8346Y-5.8661
X2.8622Y-3.7795
X2.8992Y-2.61
X2.9134Y-3.2677
X2.97Y-5.27
X2.985Y-4.0157
X2.985Y-4.1157
X2.985Y-4.2157
X2.985Y-4.3157
X3.1693Y-2.2047
X3.1693Y-2.7559
X3.2027Y-3.2677
X3.2027Y-5.748
X3.2147Y-6.2205
X3.2422Y-5.27
X3.3071Y-2.2047
X3.3071Y-2.7559
X3.315Y-4.5472
X3.315Y-4.6457
X3.3404Y-3.2677
X3.3404Y-5.748
X3.3525Y-6.2205
X3.38Y-5.27
X3.3937Y-4.0157
X3.3937Y-4.1157
X3.3937Y-4.2157
X3.3937Y-4.3157
X3.4921Y-3.7795
X3.5906Y-3.7795
X3.6937Y-4.0157
X3.6937Y-4.1157
X3.6937Y-4.2157
X3.6937Y-4.3157
X3.7598Y-3.4252
X3.8583Y-3.4252
X4.0551Y-5.6102
X4.0551Y-5.8071
X4.063Y-2.0551
X4.063Y-2.1551
X4.063Y-2.2551
X4.063Y-2.3551
X4.063Y-6.0315
X4.063Y-6.1315
X4.063Y-6.2315
X4.063Y-6.3315
X4.1358Y-6.5354
X4.1608Y-1.87
X4.2126Y-2.5787
X4.2126Y-2.7756
X4.2343Y-6.5354
X4.2592Y-1.87
X4.2913Y-5.6102
X4.2913Y-5.8071
X4.363Y-2.0551
X4.363Y-2.1551
X4.363Y-2.2551
X4.363Y-2.3551
X4.363Y-6.0315
X4.363Y-6.1315
X4.363Y-6.2315
X4.363Y-6.3315
X4.4488Y-2.5787
X4.4488Y-2.7756
X4.5208Y-6.54
X4.5669Y-5.6102
X4.5669Y-5.8071
X4.5708Y-2.54
X4.6192Y-6.54
X4.6535Y-2.0551
X4.6535Y-2.1551
X4.6535Y-2.2551
X4.6535Y-2.3551
X4.6535Y-6.0315
X4.6535Y-6.1315
X4.6535Y-6.2315
X4.6535Y-6.3315
X4.6692Y-2.54
X4.7441Y-6.5354
X4.7508Y-1.87
X4.8031Y-2.5787
X4.8031Y-2.7756
X4.8425Y-5.6102
X4.8425Y-5.8071
X4.8425Y-6.5354
X4.8492Y-1.87
X4.9535Y-2.0551
X4.9535Y-2.1551
X4.9535Y-2.2551
X4.9535Y-2.3551
X4.9535Y-6.0315
X4.9535Y-6.1315
X4.9535Y-6.2315
X4.9535Y-6.3315
X5.0787Y-2.5787
X5.0787Y-2.7756
X5.0787Y-4.3701
X5.1772Y-4.3701
X5.2441Y-2.0551
X5.2441Y-2.1551
X5.2441Y-2.2551
X5.2441Y-2.3551
X5.2512Y-2.8425
X5.2512Y-2.9425
X5.2512Y-3.0425
X5.2512Y-3.1425
X5.2512Y-5.2835
X5.2512Y-5.3835
X5.2512Y-5.4835
X5.2512Y-5.5835
X5.2512Y-6.0315
X5.2512Y-6.1315
X5.2512Y-6.2315
X5.2512Y-6.3315
X5.2756Y-5.7874
X5.3346Y-6.5354
X5.3508Y-1.88
X5.3543Y-2.5984
X5.374Y-5.7874
X5.4331Y-6.5354
X5.4492Y-1.88
X5.4528Y-2.5984
X5.5441Y-2.0551
X5.5441Y-2.1551
X5.5441Y-2.2551
X5.5441Y-2.3551
X5.5512Y-2.8425
X5.5512Y-2.9425
X5.5512Y-3.0425
X5.5512Y-3.1425
X5.5512Y-5.2835
X5.5512Y-5.3835
X5.5512Y-5.4835
X5.5512Y-5.5835
X5.5512Y-6.0315
X5.5512Y-6.1315
X5.5512Y-6.2315
X5.5512Y-6.3315
X6.7108Y-2.0
X6.7108Y-3.21
X6.7108Y-5.07
X6.7108Y-6.2
X6.7126Y-2.26
X6.7126Y-3.45
X6.7126Y-4.72
X6.7126Y-5.91
X6.8092Y-2.0
X6.8092Y-3.21
X6.8092Y-5.07
X6.8092Y-6.2
X6.811Y-2.26
X6.811Y-3.45
X6.811Y-4.72
X6.811Y-5.91
X7.7165Y-2.2047
X7.7165Y-3.3858
X7.7165Y-5.3543
X7.7165Y-6.5354
X8.0118Y-2.2047
X8.0118Y-3.3858
X8.0118Y-5.3543
X8.0118Y-6.5354
T7
X4.1205Y-4.4094
X4.2205Y-4.4094
X5.2937Y-3.5827
X5.3937Y-3.5827
X7.5197Y-4.7638
X7.5272Y-2.7953
X7.5272Y-3.937
X7.5665Y-5.9449
X7.8197Y-4.7638
X7.8272Y-2.7953
X7.8272Y-3.937
X7.8665Y-5.9449
T8
X2.03Y-3.93
X2.1Y-2.69
X2.1Y-5.82
X2.27Y-3.46
X2.37Y-4.85
X2.41Y-6.6
X2.6055Y-6.1811
X2.73Y-3.04
X2.94Y-5.0
X3.21Y-3.63
X3.26Y-1.78
X3.527Y-3.2729
X4.17Y-2.94
X4.22Y-5.25
X4.29Y-3.54
X4.48Y-4.51
X4.49Y-2.4
X4.55Y-5.25
X4.65Y-3.88
X4.68Y-5.03
X4.86Y-5.49
X4.94Y-4.78
X5.08Y-5.8
X5.1Y-6.3
X5.2Y-4.61
X5.34Y-5.02
X5.53Y-1.81
X5.63Y-3.31
X5.92Y-3.95
X6.05Y-1.95
X6.05Y-3.14
X6.08Y-5.32
X6.38Y-3.51
X6.39Y-4.89
X6.39Y-5.94
X6.49Y-3.98
X6.67Y-3.12
X6.72Y-2.68
X6.73Y-5.17
X7.4Y-2.3
X7.4Y-3.0
X7.4Y-3.6
X7.4Y-4.0
X7.4Y-5.1
X7.4Y-5.7
X7.4Y-6.1
X7.4Y-6.5
X7.76Y-4.11
X8.0Y-2.3
X8.0Y-3.6
X8.0Y-5.1
X8.0Y-5.7
X8.0Y-6.3
X8.72Y-4.28
X8.94Y-3.29
T9
X2.0866Y-3.1683
X2.0866Y-3.2683
X2.0866Y-3.3683
X2.0866Y-5.2156
X2.0866Y-5.3156
X2.0866Y-5.4156
T10
X3.14Y-4.61
X3.14Y-5.01
X3.57Y-2.97
X3.97Y-2.97
X4.0179Y-3.1677
X4.0179Y-3.2677
X4.0179Y-3.3677
X4.02Y-5.05
X4.02Y-5.45
X4.23Y-5.05
X4.23Y-5.45
X4.26Y-3.69
X4.29Y-3.02
X4.29Y-3.42
X4.55Y-3.02
X4.55Y-3.42
X4.55Y-5.05
X4.55Y-5.45
X4.66Y-3.69
X5.3928Y-4.06
X5.3928Y-4.16
X5.3928Y-4.26
X5.8661Y-2.3984
X5.8661Y-2.7984
X5.8661Y-3.1465
X5.8661Y-3.5465
X5.9055Y-4.9969
X5.9055Y-5.3969
X5.9055Y-5.6661
X5.9055Y-6.0661
X6.178Y-2.1339
X6.178Y-2.4094
X6.178Y-3.2283
X6.178Y-3.5039
X6.178Y-4.8819
X6.178Y-5.1575
X6.178Y-5.9449
X6.178Y-6.2598
X6.578Y-2.1339
X6.578Y-2.4094
X6.578Y-3.2283
X6.578Y-3.5039
X6.578Y-4.8819
X6.578Y-5.1575
X6.578Y-5.9449
X6.578Y-6.2598
X6.9281Y-1.9
X6.9281Y-2.0
X6.9281Y-2.1
X6.9291Y-4.3
X6.9291Y-4.4
X6.9291Y-4.5
X6.9291Y-4.9
X6.9291Y-5.0
X6.9291Y-5.1
X6.9313Y-2.5
X6.9313Y-2.6
X6.9313Y-2.7
X6.9313Y-3.1
X6.9313Y-3.2
X6.9313Y-3.3
X6.9313Y-3.7
X6.9313Y-3.8
X6.9313Y-3.9
X6.9313Y-5.5
X6.9313Y-5.6
X6.9313Y-5.7
X6.9313Y-6.1
X6.9313Y-6.2
X6.9313Y-6.3
T11
X2.0835Y-4.0732
X2.0835Y-4.2732
X2.2835Y-4.1732
X7.4134Y-1.8504
X8.3071Y-2.5
X8.3071Y-3.0906
X8.3071Y-3.6417
X8.3071Y-4.2323
X8.3071Y-4.4685
X8.3071Y-5.0591
X8.3071Y-5.6496
X8.3071Y-6.2402
X8.4134Y-1.8504
X8.8Y-3.7
X8.8Y-4.7
X8.9Y-1.9882
X8.9Y-2.126
X8.9Y-2.7559
X8.9Y-2.8937
X8.9Y-5.0011
X8.9Y-5.1389
X8.9Y-5.876
X8.9Y-6.0138
T12
X8.1858Y-5.3543
X8.2252Y-6.5354
X8.2283Y-3.38
X8.3144Y-2.2047
X8.3858Y-5.3543
X8.4252Y-6.5354
X8.4283Y-3.38
X8.5144Y-2.2047
T0
M30
