M48
; DRILL file {KiCad 7.0.8} date 2024 January 24, Wednesday 17:07:07
; FORMAT={-:-/ absolute / inch / decimal}
; #@! TF.CreationDate,2024-01-24T17:07:07-05:00
; #@! TF.GenerationSoftware,Kicad,Pcbnew,7.0.8
; #@! TF.FileFunction,Plated,1,4,PTH
FMAT,2
INCH
; #@! TA.AperFunction,Plated,PTH,ComponentDrill
T1C0.0236
; #@! TA.AperFunction,Plated,PTH,ComponentDrill
T2C0.0276
; #@! TA.AperFunction,Plated,PTH,ComponentDrill
T3C0.0281
; #@! TA.AperFunction,Plated,PTH,ComponentDrill
T4C0.0295
; #@! TA.AperFunction,Plated,PTH,ComponentDrill
T5C0.0300
; #@! TA.AperFunction,Plated,PTH,ComponentDrill
T6C0.0315
; #@! TA.AperFunction,Plated,PTH,ComponentDrill
T7C0.0354
; #@! TA.AperFunction,Plated,PTH,ComponentDrill
T8C0.0394
; #@! TA.AperFunction,Plated,PTH,ComponentDrill
T9C0.0433
; #@! TA.AperFunction,Plated,PTH,ComponentDrill
T10C0.0472
; #@! TA.AperFunction,Plated,PTH,ComponentDrill
T11C0.0551
%
G90
G05
T1
X3.5118Y-4.6457
X3.5709Y-4.6457
X3.7598Y-3.189
X3.8189Y-3.189
X5.0984Y-4.0157
X5.1575Y-4.0157
X5.7087Y-2.9921
X5.7157Y-5.5512
X5.7677Y-2.9921
X5.7748Y-5.5512
X5.8071Y-6.3386
X5.8465Y-2.126
X5.8661Y-6.3386
X5.9055Y-2.126
X7.6575Y-5.3543
X7.6772Y-3.3858
X7.7165Y-5.3543
X7.7165Y-6.5354
X7.7362Y-2.2047
X7.7362Y-3.3858
X7.7756Y-6.5354
X7.7953Y-2.2047
T2
X2.2441Y-2.0547
X2.2441Y-2.3547
X2.2835Y-6.0311
X2.2835Y-6.3311
X2.4409Y-2.574
X2.4409Y-2.874
X2.6055Y-5.5193
X2.6055Y-5.8193
X2.6772Y-2.5665
X2.6772Y-2.8665
X2.7165Y-4.4803
X2.7165Y-4.7803
X2.9528Y-2.0547
X2.9528Y-2.3547
X2.9528Y-4.4803
X2.9528Y-4.7803
X2.9598Y-6.0311
X2.9598Y-6.3311
X3.0315Y-5.5661
X3.0315Y-5.8661
X3.1969Y-4.0232
X3.1969Y-4.3232
X3.5827Y-2.0154
X3.5827Y-2.3154
X3.5827Y-2.4878
X3.5827Y-2.7878
X3.5827Y-5.5268
X3.5827Y-5.8268
X3.5827Y-6.0705
X3.5827Y-6.3705
X3.8583Y-2.0154
X3.8583Y-2.3154
X3.8583Y-2.4878
X3.8583Y-2.7878
X3.8583Y-5.5193
X3.8583Y-5.8193
X3.8583Y-6.0705
X3.8583Y-6.3705
X3.9055Y-3.787
X3.9055Y-4.087
X4.0311Y-4.685
X4.0311Y-4.8819
X4.063Y-3.787
X4.063Y-4.087
X4.3311Y-4.685
X4.3311Y-4.8819
X4.535Y-4.8819
X4.5748Y-4.3382
X4.5748Y-4.6382
X4.835Y-4.8819
X4.8425Y-4.3382
X4.8425Y-4.6382
X5.1181Y-3.4327
X5.1181Y-3.7327
X5.6374Y-4.5669
X5.6374Y-4.8031
X5.9374Y-4.5669
X5.9374Y-4.8031
X6.228Y-1.8189
X6.228Y-2.685
X6.228Y-4.6457
X6.228Y-5.3937
X6.228Y-5.7087
X6.228Y-6.4961
X6.2311Y-2.9921
X6.2311Y-3.7402
X6.528Y-1.8189
X6.528Y-2.685
X6.528Y-4.6457
X6.528Y-5.3937
X6.528Y-5.7087
X6.528Y-6.4961
X6.5311Y-2.9921
X6.5311Y-3.7402
T3
X4.7425Y-3.1496
X4.7425Y-5.2575
X4.8425Y-3.0496
X4.8425Y-5.1575
X4.9425Y-3.1496
X4.9425Y-5.2575
T4
X3.8055Y-4.685
X3.8555Y-4.685
X3.9055Y-4.685
X4.252Y-4.1339
X4.302Y-4.1339
X4.352Y-4.1339
X5.3831Y-4.7138
X5.3831Y-4.7638
X5.3831Y-4.8138
T5
X2.0835Y-4.0732
X2.0835Y-4.2732
X2.2835Y-4.1732
T6
X2.3425Y-5.2756
X2.3819Y-3.2677
X2.4488Y-2.0551
X2.4488Y-2.1551
X2.4488Y-2.2551
X2.4488Y-2.3551
X2.4559Y-6.0315
X2.4559Y-6.1315
X2.4559Y-6.2315
X2.4559Y-6.3315
X2.4803Y-5.2756
X2.5197Y-3.2677
X2.5394Y-1.811
X2.6378Y-1.811
X2.685Y-4.0157
X2.685Y-4.1157
X2.685Y-4.2157
X2.685Y-4.3157
X2.7488Y-2.0551
X2.7488Y-2.1551
X2.7488Y-2.2551
X2.7488Y-2.3551
X2.7559Y-6.0315
X2.7559Y-6.1315
X2.7559Y-6.2315
X2.7559Y-6.3315
X2.7638Y-3.7795
X2.7756Y-3.2677
X2.7756Y-5.2756
X2.8346Y-5.7677
X2.8346Y-5.8661
X2.8622Y-3.7795
X2.9134Y-3.2677
X2.9134Y-5.2756
X2.985Y-4.0157
X2.985Y-4.1157
X2.985Y-4.2157
X2.985Y-4.3157
X3.1693Y-2.2047
X3.1693Y-2.7559
X3.2027Y-3.2677
X3.2027Y-5.748
X3.2087Y-5.2756
X3.2147Y-6.2205
X3.3071Y-2.2047
X3.3071Y-2.7559
X3.315Y-4.5472
X3.315Y-4.6457
X3.3404Y-3.2677
X3.3404Y-5.748
X3.3465Y-5.2756
X3.3525Y-6.2205
X3.3937Y-4.0157
X3.3937Y-4.1157
X3.3937Y-4.2157
X3.3937Y-4.3157
X3.4921Y-3.7795
X3.5906Y-3.7795
X3.6937Y-4.0157
X3.6937Y-4.1157
X3.6937Y-4.2157
X3.6937Y-4.3157
X3.748Y-4.9606
X3.7598Y-3.4252
X3.8465Y-4.9606
X3.8583Y-3.4252
X4.0551Y-5.6102
X4.0551Y-5.8071
X4.063Y-2.0551
X4.063Y-2.1551
X4.063Y-2.2551
X4.063Y-2.3551
X4.063Y-6.0315
X4.063Y-6.1315
X4.063Y-6.2315
X4.063Y-6.3315
X4.1535Y-1.811
X4.1535Y-6.5354
X4.2126Y-2.5787
X4.2126Y-2.7756
X4.252Y-1.811
X4.252Y-6.5354
X4.2913Y-5.6102
X4.2913Y-5.8071
X4.363Y-2.0551
X4.363Y-2.1551
X4.363Y-2.2551
X4.363Y-2.3551
X4.363Y-6.0315
X4.363Y-6.1315
X4.363Y-6.2315
X4.363Y-6.3315
X4.4488Y-2.5787
X4.4488Y-2.7756
X4.5669Y-5.6102
X4.5669Y-5.8071
X4.6535Y-2.0551
X4.6535Y-2.1551
X4.6535Y-2.2551
X4.6535Y-2.3551
X4.6535Y-6.0315
X4.6535Y-6.1315
X4.6535Y-6.2315
X4.6535Y-6.3315
X4.7441Y-1.811
X4.7441Y-6.5354
X4.8031Y-2.5787
X4.8031Y-2.7756
X4.8425Y-1.811
X4.8425Y-5.6102
X4.8425Y-5.8071
X4.8425Y-6.5354
X4.9535Y-2.0551
X4.9535Y-2.1551
X4.9535Y-2.2551
X4.9535Y-2.3551
X4.9535Y-6.0315
X4.9535Y-6.1315
X4.9535Y-6.2315
X4.9535Y-6.3315
X5.0787Y-2.5787
X5.0787Y-2.7756
X5.0787Y-4.3701
X5.1772Y-4.3701
X5.2441Y-2.0551
X5.2441Y-2.1551
X5.2441Y-2.2551
X5.2441Y-2.3551
X5.2512Y-2.8425
X5.2512Y-2.9425
X5.2512Y-3.0425
X5.2512Y-3.1425
X5.2512Y-5.2835
X5.2512Y-5.3835
X5.2512Y-5.4835
X5.2512Y-5.5835
X5.2512Y-6.0315
X5.2512Y-6.1315
X5.2512Y-6.2315
X5.2512Y-6.3315
X5.2756Y-5.7874
X5.3346Y-1.811
X5.3346Y-6.5354
X5.3543Y-2.5984
X5.374Y-5.7874
X5.4331Y-1.811
X5.4331Y-6.5354
X5.4528Y-2.5984
X5.5441Y-2.0551
X5.5441Y-2.1551
X5.5441Y-2.2551
X5.5441Y-2.3551
X5.5512Y-2.8425
X5.5512Y-2.9425
X5.5512Y-3.0425
X5.5512Y-3.1425
X5.5512Y-5.2835
X5.5512Y-5.3835
X5.5512Y-5.4835
X5.5512Y-5.5835
X5.5512Y-6.0315
X5.5512Y-6.1315
X5.5512Y-6.2315
X5.5512Y-6.3315
T7
X4.1205Y-4.4094
X4.2205Y-4.4094
X5.2937Y-3.5827
X5.3937Y-3.5827
X7.5197Y-4.7638
X7.5272Y-2.7953
X7.5272Y-3.937
X7.5665Y-5.9449
X7.8197Y-4.7638
X7.8272Y-2.7953
X7.8272Y-3.937
X7.8665Y-5.9449
T8
X2.0866Y-3.1683
X2.0866Y-3.2683
X2.0866Y-3.3683
X2.0866Y-5.2156
X2.0866Y-5.3156
X2.0866Y-5.4156
T9
X4.0179Y-3.1677
X4.0179Y-3.2677
X4.0179Y-3.3677
X5.3959Y-4.0551
X5.3959Y-4.1551
X5.3959Y-4.2551
X5.8661Y-2.3984
X5.8661Y-2.7984
X5.8661Y-3.1465
X5.8661Y-3.5465
X5.9055Y-4.9969
X5.9055Y-5.3969
X5.9055Y-5.6661
X5.9055Y-6.0661
X6.178Y-2.1339
X6.178Y-2.4094
X6.178Y-3.2283
X6.178Y-3.5039
X6.178Y-4.8819
X6.178Y-5.1575
X6.178Y-5.9449
X6.178Y-6.2598
X6.578Y-2.1339
X6.578Y-2.4094
X6.578Y-3.2283
X6.578Y-3.5039
X6.578Y-4.8819
X6.578Y-5.1575
X6.578Y-5.9449
X6.578Y-6.2598
X6.9281Y-1.9
X6.9281Y-2.0
X6.9281Y-2.1
X6.9291Y-4.3
X6.9291Y-4.4
X6.9291Y-4.5
X6.9291Y-4.9
X6.9291Y-5.0
X6.9291Y-5.1
X6.9313Y-2.5
X6.9313Y-2.6
X6.9313Y-2.7
X6.9313Y-3.1
X6.9313Y-3.2
X6.9313Y-3.3
X6.9313Y-3.7
X6.9313Y-3.8
X6.9313Y-3.9
X6.9313Y-5.5
X6.9313Y-5.6
X6.9313Y-5.7
X6.9313Y-6.1
X6.9313Y-6.2
X6.9313Y-6.3
T10
X7.4134Y-1.8504
X8.3071Y-2.5
X8.3071Y-3.0906
X8.3071Y-3.6417
X8.3071Y-4.2323
X8.3071Y-4.4685
X8.3071Y-5.0591
X8.3071Y-5.6496
X8.3071Y-6.2402
X8.4134Y-1.8504
X8.7756Y-5.876
X8.7756Y-6.0138
X8.7795Y-1.9882
X8.7795Y-2.126
X8.7795Y-2.7559
X8.7795Y-2.8937
T11
X8.1858Y-5.3543
X8.2252Y-6.5354
X8.2283Y-3.3465
X8.3144Y-2.2047
X8.3858Y-5.3543
X8.4252Y-6.5354
X8.4283Y-3.3465
X8.5144Y-2.2047
T0
M30
